<svg width="204" height="161" version="1.1" xmlns="http://www.w3.org/2000/svg" desc="Created with imagetracer.js version 1.2.6" ><path fill="rgb(0,0,0)" stroke="rgb(0,0,0)" stroke-width="1" opacity="0" d="M 0 0 L 204 0 L 204 161 L 0 161 L 0 0 Z M 173 33 L 148 53 L 139 42 Q 134 41 133 45 L 133 47 L 142 57 L 142 59 L 80 124 Q 79 128 83 129 L 89 128 Q 102 105 122 89 L 124 86 L 146 65 L 149 71 L 152 80 L 152 81 L 156 81 L 159 77 L 159 74 L 156 71 L 151 59 L 166 45 L 176 39 Q 178 40 177 37 L 173 33 Z M 194 33 L 184 37 L 175 59 L 169 78 Q 170 80 176 79 L 187 61 Q 188 57 185 58 L 195 38 Q 196 34 194 33 Z M 76 36 L 46 44 L 39 47 L 32 48 L 20 53 Q 17 54 18 58 L 21 59 L 26 59 L 33 57 L 34 57 L 29 68 L 11 74 L 8 78 L 12 79 L 21 77 L 24 78 Q 18 83 18 94 L 23 96 L 31 93 Q 35 90 34 85 L 32 85 L 37 74 L 57 66 L 59 66 L 59 61 L 53 61 L 42 64 L 46 53 L 80 44 L 79 38 L 76 36 Z M 127 42 L 93 51 L 82 56 L 85 61 L 96 58 L 97 58 L 94 65 Q 82 74 66 77 L 77 56 Q 78 51 75 51 Q 76 48 73 49 L 69 53 L 64 66 L 54 82 Q 53 86 56 87 L 61 87 L 89 75 L 90 75 L 87 83 L 80 87 Q 77 88 78 92 L 86 90 L 87 93 L 90 94 L 92 89 L 97 85 L 121 76 Q 123 75 122 71 L 119 71 L 97 79 L 95 80 L 98 71 L 124 63 L 126 60 L 125 56 L 102 63 L 104 56 L 114 52 L 126 50 L 129 45 Q 130 41 127 42 Z M 19 100 L 19 110 L 37 110 L 38 109 L 38 100 L 19 100 Z M 70 100 L 68 102 Q 66 108 70 110 Q 74 111 72 107 L 84 107 L 84 110 L 86 110 Q 89 108 87 102 L 86 100 L 70 100 Z M 119 100 L 117 102 Q 116 106 118 106 L 132 106 L 132 107 L 118 107 L 117 109 L 119 110 L 135 110 Q 137 109 136 106 L 135 103 Q 137 104 136 102 L 135 100 L 119 100 Z M 166 100 L 166 110 L 184 110 L 185 109 L 184 107 L 185 102 L 184 100 L 166 100 Z M 97 118 L 97 126 L 103 126 L 105 126 L 108 125 L 112 126 L 114 126 L 115 126 L 115 118 Q 112 117 113 121 L 110 118 Q 107 117 108 121 L 107 120 L 104 121 L 103 118 L 100 119 L 97 118 Z M 116 118 L 116 126 L 121 125 L 122 126 L 128 126 L 129 122 L 129 126 Q 132 127 131 125 L 132 125 Q 131 127 135 126 Q 137 125 136 120 L 132 121 L 131 118 Q 128 117 129 120 L 125 120 L 125 118 Q 121 117 122 120 L 121 120 L 121 118 L 116 118 Z M 140 118 L 138 120 Q 137 125 140 126 Q 144 127 143 125 L 146 126 Q 149 127 148 125 L 149 125 Q 148 127 151 126 L 152 122 L 152 127 Q 154 130 157 125 L 159 126 L 162 125 L 164 126 L 165 123 L 167 126 L 175 126 L 175 123 L 176 123 Q 174 127 178 126 L 180 123 L 180 125 L 184 126 L 185 124 L 184 120 L 176 120 Q 176 117 173 118 L 173 120 L 172 118 Q 169 117 170 120 L 163 120 L 162 121 L 159 120 L 157 120 Q 150 118 149 121 L 143 118 L 140 118 Z " /><path fill="rgb(0,0,0)" stroke="rgb(0,0,0)" stroke-width="1" opacity="0" d="M 23.5 106 L 35 106.5 L 23.5 107 L 23.5 106 Z " /><path fill="rgb(0,0,0)" stroke="rgb(0,0,0)" stroke-width="1" opacity="0" d="M 169.5 106 L 183 106.5 L 169.5 107 L 169.5 106 Z " /><path fill="rgb(0,0,0)" stroke="rgb(0,0,0)" stroke-width="1" opacity="0" d="M 140 121 Q 143 120 142 123 Q 139 124 140 121 Z " /><path fill="rgb(14,118,189)" stroke="rgb(14,118,189)" stroke-width="1" opacity="0.7372549019607844" d="M 172.5 33 L 177 36.5 Q 178.1 39.8 175.5 39 L 165.5 45 L 151 58.5 L 156 70.5 L 159 73.5 L 159 76.5 L 156 81 L 152 81 L 152 79.5 L 149 70.5 L 145.5 65 L 124 85.5 L 122 88.5 Q 102.1 105.1 88.5 128 L 82.5 129 Q 79.3 128.3 80 123.5 L 142 58.5 L 142 56.5 L 133 46.5 L 133 44.5 Q 133.8 41.3 138.5 42 L 147.5 53 L 172.5 33 Z " /><path fill="rgb(14,118,189)" stroke="rgb(14,118,189)" stroke-width="1" opacity="0.7372549019607844" d="M 193.5 33 Q 195.8 33.8 195 37.5 L 185 58 Q 188 56.8 187 60.5 L 175.5 79 Q 170.3 80.3 169 77.5 L 175 58.5 L 184 37 L 193.5 33 Z " /><path fill="rgb(14,118,189)" stroke="rgb(14,118,189)" stroke-width="1" opacity="0.7372549019607844" d="M 75.5 36 L 79 37.5 L 80 44 L 46 53 L 42 64 L 52.5 61 L 59 61 L 59 66 L 56.5 66 L 37 73.5 L 32 84.5 L 34 85 Q 34.6 90.3 30.5 93 L 22.5 96 L 18 93.5 Q 18.4 82.9 24 77.5 L 20.5 77 L 11.5 79 L 8 78 L 10.5 74 L 29 68 L 33 57 L 25.5 59 L 20.5 59 L 18 58 Q 17 54.2 19.5 53 L 31.5 48 L 38.5 47 L 45.5 44 L 75.5 36 Z " /><path fill="rgb(14,118,189)" stroke="rgb(14,118,189)" stroke-width="1" opacity="0.7372549019607844" d="M 126.5 42 Q 130.3 40.8 129 44.5 L 126 50 L 113.5 52 L 104 56 L 102 63 L 124.5 56 L 126 59.5 L 123.5 63 L 98 71 L 95 79.5 L 96.5 79 L 118.5 71 L 122 71 Q 123 74.8 120.5 76 L 96.5 85 L 92 88.5 L 89.5 94 L 87 92.5 L 85.5 90 L 78 92 Q 77 88.2 79.5 87 L 87 82.5 L 89 75 L 60.5 87 L 55.5 87 Q 53 86 54 81.5 L 64 65.5 L 69 52.5 L 72.5 49 Q 75.8 47.9 75 50.5 Q 77.8 51.3 77 55.5 L 66 77 Q 82.1 73.6 94 64.5 L 96 58 L 84.5 61 L 82 55.5 L 92.5 51 L 126.5 42 Z " /><path fill="rgb(14,118,189)" stroke="rgb(14,118,189)" stroke-width="1" opacity="0.7372549019607844" d="M 19 100 L 38 100 L 38 108.5 L 36.5 110 L 19 110 L 19 100 Z M 24 106 L 24 107 L 35 107 L 24 106 Z " /><path fill="rgb(14,118,189)" stroke="rgb(14,118,189)" stroke-width="1" opacity="0.7372549019607844" d="M 69.5 100 L 85.5 100 L 87 101.5 Q 88.8 108.3 85.5 110 L 84 110 L 83.5 107 L 72 107 Q 73.7 111.1 69.5 110 Q 66.3 108.3 68 101.5 L 69.5 100 Z " /><path fill="rgb(14,118,189)" stroke="rgb(14,118,189)" stroke-width="1" opacity="0.7372549019607844" d="M 118.5 100 L 134.5 100 L 136 101.5 Q 136.8 103.8 134.5 103 L 136 105.5 Q 136.8 109.3 134.5 110 L 118.5 110 L 117 108.5 L 117.5 107 L 131.5 107 L 131.5 106 L 117.5 106 Q 116.5 106 117 101.5 L 118.5 100 Z " /><path fill="rgb(14,118,189)" stroke="rgb(14,118,189)" stroke-width="1" opacity="0.7372549019607844" d="M 166 100 L 183.5 100 L 185 101.5 L 184 106.5 L 185 108.5 L 183.5 110 L 166 110 L 166 100 Z M 170 106 L 170 107 L 183 107 L 170 106 Z " /><path fill="rgb(14,118,189)" stroke="rgb(14,118,189)" stroke-width="1" opacity="0.7372549019607844" d="M 97 118 L 99.5 119 L 103 118 L 103.5 121 L 106.5 120 L 108 120.5 Q 106.9 117.2 109.5 118 L 113 120.5 Q 112 116.8 115 118 L 115 125.5 L 113.5 126 L 111.5 126 L 107.5 125 L 104.5 126 L 102.5 126 L 97 126 L 97 118 Z " /><path fill="rgb(14,118,189)" stroke="rgb(14,118,189)" stroke-width="1" opacity="0.7372549019607844" d="M 116 118 L 121 118 L 121 119.5 L 122 119.5 Q 121.2 116.9 124.5 118 L 124.5 120 L 129 120 Q 128 117 131 118 L 131.5 121 L 136 120 Q 137.3 124.6 134.5 126 Q 131.2 127.1 132 124.5 L 131 124.5 Q 131.7 127.1 129 126 L 128.5 122 L 128 126 L 121.5 126 L 120.5 125 L 116 126 L 116 118 Z " /><path fill="rgb(14,118,189)" stroke="rgb(14,118,189)" stroke-width="1" opacity="0.7372549019607844" d="M 139.5 118 L 142.5 118 L 148.5 121 Q 150.3 118.3 156.5 120 L 158.5 120 L 161.5 121 L 162.5 120 L 170 120 Q 169 117 172 118 L 172.5 120 L 173 118 Q 176.1 117.3 175.5 120 L 183.5 120 L 185 123.5 L 184 126 L 180 124.5 L 179.5 123 L 177.5 126 Q 174.5 126.9 176 122.5 L 175 122.5 L 175 126 L 166.5 126 L 164.5 123 L 164 126 L 161.5 125 L 158.5 126 L 156.5 125 Q 154.2 130.2 152 126.5 L 151.5 122 L 151 126 Q 148.3 127.1 149 124.5 L 148 124.5 Q 148.8 127.1 145.5 126 L 143 124.5 Q 143.9 127.5 139.5 126 Q 136.8 124.8 138 119.5 L 139.5 118 Z M 140 121 Q 139 124 142 123 Q 143 120 140 121 Z " /></svg>